<svg width="300" height="400" viewBox="0 0 300 400" fill="none" xmlns="http://www.w3.org/2000/svg">
<rect width="300" height="400" fill="#F4F5F7"/>
<g clip-path="url(#clip0_9356_233671)">
<path d="M147.184 246.572C146.683 246.331 146.116 246.11 145.595 245.848C143.159 244.637 141.75 242.58 140.883 240.076C140.146 237.959 139.72 235.762 139.164 233.604C138.091 229.441 137.03 225.279 135.981 221.119L133.018 209.469C132.156 206.086 131.292 202.7 130.427 199.311C129.499 195.676 128.587 192.04 127.655 188.405C127.153 186.504 126.652 184.614 126.266 182.688C125.875 180.611 125.559 178.534 125.915 176.402C126.066 175.459 126.427 174.561 126.972 173.777C127.517 172.994 128.232 172.344 129.063 171.877C130.686 170.99 132.377 170.237 134.121 169.624C138.502 167.844 142.878 166.064 147.274 164.319C150.483 163.047 153.635 161.619 156.964 160.654C160.825 159.477 164.844 158.905 168.879 158.959C173.621 159.075 178.052 160.201 181.952 163.032C184.684 165.081 186.913 167.73 188.469 170.776C190.811 175.184 192.277 180.006 192.784 184.976C193.299 189.047 192.987 193.181 191.867 197.129C190.533 201.536 188.18 205.564 185 208.885C181.31 212.832 176.799 215.533 171.917 217.685C168.921 219.025 165.79 220.037 162.578 220.702C161.678 220.902 160.765 221.044 159.846 221.124C159.45 221.154 159.375 221.255 159.475 221.627C160.638 225.955 161.791 230.287 162.934 234.625C163.345 236.169 163.751 237.713 164.162 239.251C164.207 239.417 164.272 239.583 164.333 239.754C164.747 240.495 164.89 241.357 164.739 242.193C164.663 242.425 164.532 242.634 164.357 242.804C164.182 242.974 163.969 243.099 163.736 243.168C163.061 243.453 162.371 243.703 161.671 243.918C159.223 244.873 156.729 245.702 154.197 246.402C152.733 246.781 151.228 246.982 149.716 247C148.969 246.973 148.225 246.892 147.49 246.759C147.428 246.753 147.368 246.734 147.315 246.702C147.262 246.669 147.217 246.625 147.184 246.572Z" fill="#D3D3D6"/>
<path opacity="0.7" d="M135.53 243.168C133.835 241.952 132.848 240.207 132.086 238.326C130.848 235.269 130.081 232.066 129.209 228.888C127.048 220.843 124.923 212.762 122.778 204.697C120.458 195.961 118.129 187.235 115.79 178.519C115.427 177.333 115.328 176.081 115.502 174.852C115.675 173.623 116.115 172.448 116.792 171.409C118.046 169.463 119.9 168.241 121.996 167.387C126.527 165.513 131.06 163.644 135.595 161.78C141.109 159.517 146.653 157.476 152.478 156.219C154.739 155.691 157.028 155.294 159.335 155.027C161.731 154.8 164.142 154.771 166.543 154.942C166.638 154.972 166.739 155.022 166.729 154.851C162.448 153.071 157.946 152.337 153.355 152.035H152.854H152.272H149.856H148.914C147.516 152.112 146.124 152.28 144.748 152.538C140.015 153.41 135.377 154.737 130.898 156.5C125.504 158.577 120.201 160.87 114.857 163.037C113.078 163.761 111.268 164.415 109.684 165.551C106.592 167.769 105.323 171.198 106.376 174.663C107.604 178.685 108.697 182.798 109.78 186.891C112.787 198.291 115.624 209.745 118.687 221.134C119.82 225.343 120.908 229.562 122.321 233.705C122.99 235.785 124.235 237.632 125.91 239.03C127.086 239.904 128.381 240.603 129.755 241.107C131.344 241.786 132.943 242.424 134.592 243.118C134.902 243.174 135.216 243.191 135.53 243.168Z" fill="#E0E1E3"/>
<path d="M158.949 177.861C163.009 176.815 166.829 177.484 169.095 181.707C171.072 185.341 171.898 189.493 171.461 193.61C170.934 198.834 168.082 202.369 163.255 204.32C160.827 205.291 158.288 205.955 155.696 206.296C155.48 206.296 155.34 206.296 155.265 206.07C154.798 204.415 154.317 202.761 153.846 201.102C153.834 201.042 153.834 200.98 153.846 200.921C153.951 200.669 154.207 200.624 154.413 200.523C155.713 199.939 156.901 199.128 157.921 198.13C159.737 196.261 160.949 193.887 161.4 191.317C161.972 188.224 161.495 185.212 160.673 182.23C160.319 180.9 159.794 179.622 159.109 178.429C159.029 178.263 158.854 178.097 158.949 177.861Z" fill="#BFBFC2"/>
<path d="M158.949 177.861C160.618 180.561 161.36 183.578 161.711 186.67C161.976 188.564 161.853 190.493 161.351 192.337C160.848 194.182 159.977 195.905 158.789 197.401C157.469 198.969 155.778 200.179 153.871 200.921C153.623 200.477 153.453 199.994 153.37 199.493C151.823 194.193 150.285 188.89 148.758 183.583C148.633 183.156 148.528 182.723 148.392 182.296C148.322 182.07 148.367 181.964 148.593 181.858C151.555 180.486 154.503 179.073 157.646 178.152C158.066 178 158.504 177.902 158.949 177.861Z" fill="#F4F5F7"/>
</g>
<defs>
<clipPath id="clip0_9356_233671">
<rect width="87" height="95" fill="white" transform="translate(106 152)"/>
</clipPath>
</defs>
</svg>
