<svg width="202" height="46" viewBox="0 0 202 46" fill="none" xmlns="http://www.w3.org/2000/svg">
<path d="M71.5083 34.9667C71.5083 34.2944 71.5542 33.4236 71.6458 32.3542C71.7681 31.2542 71.875 30.1083 71.9667 28.9167C72.0889 27.6944 72.1958 26.5181 72.2875 25.3875C72.4097 24.2569 72.4708 23.3097 72.4708 22.5458C72.4708 21.7514 72.2722 21.0486 71.875 20.4375C71.5083 19.7958 70.775 19.475 69.675 19.475C68.6056 19.475 67.7194 19.7347 67.0167 20.2542C66.3139 20.7736 65.7181 21.7208 65.2292 23.0958C64.7708 24.4708 64.3889 26.3653 64.0833 28.7792C63.7778 31.1931 63.4875 34.2944 63.2125 38.0833C63.1819 38.45 63.1056 38.6944 62.9833 38.8167C62.8611 38.9389 62.6014 39 62.2042 39H60.5542C59.6069 39 58.8278 38.9083 58.2167 38.725C57.6361 38.5111 57.1625 38.2208 56.7958 37.8542C56.4597 37.4875 56.2153 37.0444 56.0625 36.525C55.9403 35.975 55.8792 35.3486 55.8792 34.6458C55.8792 34.1875 55.8944 33.5458 55.925 32.7208C55.9861 31.8653 56.0778 30.7042 56.2 29.2375C56.3222 27.7403 56.4597 25.8611 56.6125 23.6C56.7958 21.3083 57.0097 18.4819 57.2542 15.1208C57.2847 14.4486 57.3611 14.0514 57.4833 13.9292C57.575 13.8375 57.8194 13.7917 58.2167 13.7917H60.0042C60.9208 13.7917 61.6694 13.8986 62.25 14.1125C62.8611 14.3264 63.35 14.6167 63.7167 14.9833C64.0833 15.3194 64.3431 15.7319 64.4958 16.2208C64.6486 16.6792 64.7403 17.1528 64.7708 17.6417C65.7181 16.0222 66.8028 14.9069 68.025 14.2958C69.2472 13.6542 70.775 13.3333 72.6083 13.3333C73.8917 13.3333 75.0069 13.4708 75.9542 13.7458C76.9014 14.0208 77.6806 14.4944 78.2917 15.1667C78.9333 15.8083 79.4069 16.6639 79.7125 17.7333C80.0181 18.7722 80.1708 20.0708 80.1708 21.6292C80.1708 22.1181 80.1403 22.8208 80.0792 23.7375C80.0181 24.6542 79.9417 25.6625 79.85 26.7625C79.7583 27.8319 79.6514 28.9625 79.5292 30.1542C79.4375 31.3153 79.3458 32.4 79.2542 33.4083C79.1625 34.4167 79.0861 35.3028 79.025 36.0667C78.9639 36.8306 78.9333 37.3347 78.9333 37.5792C78.9333 38.2514 78.8569 38.6639 78.7042 38.8167C78.5514 38.9389 78.2153 39 77.6958 39H76.2292C75.2514 39 74.4569 38.9083 73.8458 38.725C73.2347 38.5417 72.7611 38.2819 72.425 37.9458C72.0889 37.6097 71.8444 37.1972 71.6917 36.7083C71.5694 36.1889 71.5083 35.6083 71.5083 34.9667ZM93.9273 39.4583C92.5828 39.4583 91.2384 39.2903 89.8939 38.9542C88.5801 38.6181 87.3884 38.0375 86.3189 37.2125C85.2801 36.3875 84.4245 35.2875 83.7523 33.9125C83.0801 32.5375 82.7439 30.8111 82.7439 28.7333C82.7439 27.9694 82.8051 27.0528 82.9273 25.9833C83.0495 24.9139 83.2787 23.8139 83.6148 22.6833C83.9814 21.5528 84.4703 20.4375 85.0814 19.3375C85.7231 18.2069 86.5481 17.1986 87.5564 16.3125C88.5648 15.4264 89.787 14.7083 91.2231 14.1583C92.6592 13.6083 94.3703 13.3333 96.3564 13.3333C97.9453 13.3333 99.2898 13.5167 100.39 13.8833C101.49 14.25 102.376 14.7542 103.048 15.3958C103.72 16.0069 104.209 16.725 104.515 17.55C104.82 18.375 104.973 19.2611 104.973 20.2083C104.973 21.6139 104.683 22.8056 104.102 23.7833C103.552 24.7611 102.819 25.5861 101.902 26.2583C101.016 26.9 100.023 27.4042 98.9231 27.7708C97.8231 28.1375 96.7384 28.4278 95.6689 28.6417C94.5995 28.825 93.6064 28.9472 92.6898 29.0083C91.8037 29.0389 91.1162 29.0542 90.6273 29.0542C90.6273 29.6347 90.7037 30.2153 90.8564 30.7958C91.0398 31.3458 91.2995 31.8347 91.6356 32.2625C91.9717 32.6903 92.4148 33.0417 92.9648 33.3167C93.5148 33.5917 94.187 33.7292 94.9814 33.7292C95.7759 33.7292 96.387 33.6069 96.8148 33.3625C97.2731 33.0875 97.6398 32.7972 97.9148 32.4917C98.1898 32.1556 98.4189 31.8653 98.6023 31.6208C98.8162 31.3458 99.0912 31.2083 99.4273 31.2083C99.5801 31.2083 99.8398 31.2542 100.206 31.3458C100.604 31.4069 101.001 31.5597 101.398 31.8042C101.795 32.0486 102.147 32.3847 102.452 32.8125C102.758 33.2403 102.911 33.7903 102.911 34.4625C102.911 35.3486 102.636 36.1125 102.086 36.7542C101.536 37.3958 100.818 37.9153 99.9314 38.3125C99.0759 38.7097 98.1134 39 97.0439 39.1833C95.9745 39.3667 94.9356 39.4583 93.9273 39.4583ZM94.7981 19.4292C94.1259 19.4292 93.5453 19.6278 93.0564 20.025C92.5981 20.3917 92.2009 20.8653 91.8648 21.4458C91.5592 22.0264 91.3148 22.6681 91.1314 23.3708C90.9787 24.0736 90.8564 24.7458 90.7648 25.3875C92.6592 25.3569 94.187 25.0361 95.3481 24.425C96.5398 23.8139 97.1356 22.9431 97.1356 21.8125C97.1356 21.2014 96.937 20.6514 96.5398 20.1625C96.1731 19.6736 95.5926 19.4292 94.7981 19.4292ZM116.671 19.9792C116.579 21.1403 116.472 22.2861 116.35 23.4167C116.258 24.5472 116.167 25.6167 116.075 26.625C115.983 27.6333 115.907 28.5347 115.846 29.3292C115.815 30.1236 115.8 30.7347 115.8 31.1625C115.8 31.9569 115.892 32.4917 116.075 32.7667C116.258 33.0111 116.564 33.1333 116.992 33.1333C117.328 33.1333 117.618 33.0722 117.863 32.95C118.107 32.8278 118.336 32.6903 118.55 32.5375C118.764 32.3847 118.947 32.2472 119.1 32.125C119.283 32.0028 119.482 31.9417 119.696 31.9417C119.91 31.9417 120.108 32.0639 120.292 32.3083C120.475 32.5528 120.567 33.1181 120.567 34.0042C120.567 35.6847 120.108 37.0139 119.192 37.9917C118.275 38.9694 116.702 39.4583 114.471 39.4583C112.271 39.4583 110.636 38.9542 109.567 37.9458C108.528 36.9069 108.008 35.3333 108.008 33.225C108.008 32.7667 108.024 32.2319 108.054 31.6208C108.115 30.9792 108.192 30.1542 108.283 29.1458C108.375 28.1375 108.482 26.9 108.604 25.4333C108.757 23.9667 108.91 22.1486 109.063 19.9792H106.633C106.389 19.9792 106.236 19.9333 106.175 19.8417C106.145 19.7194 106.129 19.5514 106.129 19.3375L106.267 17C106.297 16.6028 106.343 16.2208 106.404 15.8542C106.496 15.4569 106.649 15.1056 106.863 14.8C107.107 14.4944 107.443 14.25 107.871 14.0667C108.299 13.8833 108.864 13.7917 109.567 13.7917C109.781 13.2417 110.025 12.5847 110.3 11.8208C110.575 11.0569 110.85 10.3236 111.125 9.62083C111.4 8.8875 111.66 8.27639 111.904 7.7875C112.179 7.29861 112.424 7.05417 112.638 7.05417H113.967C115.25 7.05417 116.136 7.45139 116.625 8.24583C117.114 9.04028 117.358 9.9875 117.358 11.0875C117.358 11.6986 117.313 12.6 117.221 13.7917H122.033C122.522 13.7917 122.767 14.0056 122.767 14.4333L122.583 16.9083C122.522 17.825 122.263 18.5736 121.804 19.1542C121.377 19.7042 120.475 19.9792 119.1 19.9792H116.671ZM134.481 39.4583C133.136 39.4583 131.792 39.2903 130.447 38.9542C129.134 38.6181 127.942 38.0375 126.872 37.2125C125.834 36.3875 124.978 35.2875 124.306 33.9125C123.634 32.5375 123.297 30.8111 123.297 28.7333C123.297 27.9694 123.359 27.0528 123.481 25.9833C123.603 24.9139 123.832 23.8139 124.168 22.6833C124.535 21.5528 125.024 20.4375 125.635 19.3375C126.277 18.2069 127.102 17.1986 128.11 16.3125C129.118 15.4264 130.341 14.7083 131.777 14.1583C133.213 13.6083 134.924 13.3333 136.91 13.3333C138.499 13.3333 139.843 13.5167 140.943 13.8833C142.043 14.25 142.929 14.7542 143.602 15.3958C144.274 16.0069 144.763 16.725 145.068 17.55C145.374 18.375 145.527 19.2611 145.527 20.2083C145.527 21.6139 145.236 22.8056 144.656 23.7833C144.106 24.7611 143.372 25.5861 142.456 26.2583C141.57 26.9 140.577 27.4042 139.477 27.7708C138.377 28.1375 137.292 28.4278 136.222 28.6417C135.153 28.825 134.16 28.9472 133.243 29.0083C132.357 29.0389 131.67 29.0542 131.181 29.0542C131.181 29.6347 131.257 30.2153 131.41 30.7958C131.593 31.3458 131.853 31.8347 132.189 32.2625C132.525 32.6903 132.968 33.0417 133.518 33.3167C134.068 33.5917 134.741 33.7292 135.535 33.7292C136.329 33.7292 136.941 33.6069 137.368 33.3625C137.827 33.0875 138.193 32.7972 138.468 32.4917C138.743 32.1556 138.972 31.8653 139.156 31.6208C139.37 31.3458 139.645 31.2083 139.981 31.2083C140.134 31.2083 140.393 31.2542 140.76 31.3458C141.157 31.4069 141.554 31.5597 141.952 31.8042C142.349 32.0486 142.7 32.3847 143.006 32.8125C143.311 33.2403 143.464 33.7903 143.464 34.4625C143.464 35.3486 143.189 36.1125 142.639 36.7542C142.089 37.3958 141.371 37.9153 140.485 38.3125C139.629 38.7097 138.667 39 137.597 39.1833C136.528 39.3667 135.489 39.4583 134.481 39.4583ZM135.352 19.4292C134.679 19.4292 134.099 19.6278 133.61 20.025C133.152 20.3917 132.754 20.8653 132.418 21.4458C132.113 22.0264 131.868 22.6681 131.685 23.3708C131.532 24.0736 131.41 24.7458 131.318 25.3875C133.213 25.3569 134.741 25.0361 135.902 24.425C137.093 23.8139 137.689 22.9431 137.689 21.8125C137.689 21.2014 137.491 20.6514 137.093 20.1625C136.727 19.6736 136.146 19.4292 135.352 19.4292Z" fill="#4D3ACA"/>
<path d="M171.65 35.2875C171.65 35.4403 171.574 35.7458 171.421 36.2042C171.268 36.6625 171.024 37.1361 170.688 37.625C170.351 38.1139 169.924 38.5417 169.404 38.9083C168.915 39.275 168.319 39.4583 167.617 39.4583C166.792 39.4583 165.967 39.1833 165.142 38.6333C164.347 38.0833 163.553 37.3347 162.758 36.3875C161.964 35.4403 161.154 34.325 160.329 33.0417C159.535 31.7278 158.725 30.3069 157.9 28.7792C157.778 30.3986 157.656 31.9875 157.533 33.5458C157.411 35.1042 157.289 36.6167 157.167 38.0833C157.136 38.45 157.06 38.6944 156.938 38.8167C156.815 38.9389 156.556 39 156.158 39H154.508C153.561 39 152.782 38.9083 152.171 38.725C151.56 38.5111 151.086 38.2208 150.75 37.8542C150.414 37.4875 150.169 37.0292 150.017 36.4792C149.894 35.8986 149.833 35.2417 149.833 34.5083C149.833 34.1417 149.849 33.7597 149.879 33.3625C149.91 32.9653 149.956 32.4 150.017 31.6667C150.078 30.9333 150.154 29.9708 150.246 28.7792C150.368 27.5875 150.506 26.0139 150.658 24.0583C150.811 22.1028 150.979 19.7042 151.163 16.8625C151.376 13.9903 151.606 10.5069 151.85 6.4125C151.881 5.74028 151.957 5.34305 152.079 5.22083C152.171 5.12917 152.415 5.08333 152.813 5.08333H154.6C155.547 5.08333 156.326 5.19028 156.938 5.40417C157.549 5.61806 158.038 5.90833 158.404 6.275C158.771 6.64167 159.015 7.06944 159.138 7.55833C159.29 8.04722 159.367 8.55139 159.367 9.07083C159.367 9.37639 159.336 9.89583 159.275 10.6292C159.244 11.3319 159.199 12.2028 159.138 13.2417C159.076 14.25 158.985 15.3958 158.863 16.6792C158.771 17.9625 158.679 19.3069 158.587 20.7125L165.921 14.0208C166.196 13.7764 166.44 13.6083 166.654 13.5167C166.899 13.425 167.082 13.3792 167.204 13.3792C167.54 13.3792 167.907 13.5931 168.304 14.0208C168.701 14.4486 169.068 14.9528 169.404 15.5333C169.771 16.0833 170.061 16.6639 170.275 17.275C170.519 17.8556 170.642 18.3292 170.642 18.6958C170.642 19.5819 169.924 20.5139 168.488 21.4917C167.082 22.4694 164.943 23.5694 162.071 24.7917C163.354 26.2278 164.576 27.5417 165.738 28.7333C166.899 29.925 167.907 30.9792 168.762 31.8958C169.649 32.8125 170.351 33.5611 170.871 34.1417C171.39 34.7222 171.65 35.1042 171.65 35.2875ZM178.39 39C177.443 39 176.664 38.9083 176.053 38.725C175.472 38.5111 174.999 38.2208 174.632 37.8542C174.296 37.4875 174.051 37.0444 173.899 36.525C173.776 35.975 173.715 35.3486 173.715 34.6458C173.715 34.1875 173.731 33.5458 173.761 32.7208C173.822 31.8653 173.914 30.7042 174.036 29.2375C174.158 27.7403 174.296 25.8611 174.449 23.6C174.632 21.3083 174.846 18.4819 175.09 15.1208C175.121 14.4486 175.197 14.0514 175.32 13.9292C175.411 13.8375 175.656 13.7917 176.053 13.7917H177.84C178.788 13.7917 179.551 13.8833 180.132 14.0667C180.743 14.25 181.217 14.525 181.553 14.8917C181.92 15.2583 182.164 15.7014 182.286 16.2208C182.439 16.7403 182.515 17.3208 182.515 17.9625C182.515 18.4208 182.485 19.1083 182.424 20.025C182.363 20.9417 182.271 22.1944 182.149 23.7833C182.057 25.3417 181.92 27.2972 181.736 29.65C181.553 31.9722 181.324 34.7833 181.049 38.0833C181.018 38.45 180.942 38.6944 180.82 38.8167C180.697 38.9389 180.438 39 180.04 39H178.39ZM175.136 8.38333C175.136 7.16111 175.579 6.19861 176.465 5.49583C177.351 4.79306 178.543 4.44167 180.04 4.44167C181.354 4.44167 182.301 4.71667 182.882 5.26666C183.493 5.78611 183.799 6.48889 183.799 7.375C183.799 8.50555 183.371 9.45278 182.515 10.2167C181.69 10.95 180.468 11.3167 178.849 11.3167C176.374 11.3167 175.136 10.3389 175.136 8.38333ZM195.498 19.9792C195.406 21.1403 195.299 22.2861 195.177 23.4167C195.085 24.5472 194.993 25.6167 194.902 26.625C194.81 27.6333 194.734 28.5347 194.673 29.3292C194.642 30.1236 194.627 30.7347 194.627 31.1625C194.627 31.9569 194.718 32.4917 194.902 32.7667C195.085 33.0111 195.391 33.1333 195.818 33.1333C196.155 33.1333 196.445 33.0722 196.689 32.95C196.934 32.8278 197.163 32.6903 197.377 32.5375C197.591 32.3847 197.774 32.2472 197.927 32.125C198.11 32.0028 198.309 31.9417 198.523 31.9417C198.737 31.9417 198.935 32.0639 199.118 32.3083C199.302 32.5528 199.393 33.1181 199.393 34.0042C199.393 35.6847 198.935 37.0139 198.018 37.9917C197.102 38.9694 195.528 39.4583 193.298 39.4583C191.098 39.4583 189.463 38.9542 188.393 37.9458C187.355 36.9069 186.835 35.3333 186.835 33.225C186.835 32.7667 186.85 32.2319 186.881 31.6208C186.942 30.9792 187.018 30.1542 187.11 29.1458C187.202 28.1375 187.309 26.9 187.431 25.4333C187.584 23.9667 187.737 22.1486 187.889 19.9792H185.46C185.216 19.9792 185.063 19.9333 185.002 19.8417C184.971 19.7194 184.956 19.5514 184.956 19.3375L185.093 17C185.124 16.6028 185.17 16.2208 185.231 15.8542C185.323 15.4569 185.475 15.1056 185.689 14.8C185.934 14.4944 186.27 14.25 186.698 14.0667C187.125 13.8833 187.691 13.7917 188.393 13.7917C188.607 13.2417 188.852 12.5847 189.127 11.8208C189.402 11.0569 189.677 10.3236 189.952 9.62083C190.227 8.8875 190.487 8.27639 190.731 7.7875C191.006 7.29861 191.25 7.05417 191.464 7.05417H192.793C194.077 7.05417 194.963 7.45139 195.452 8.24583C195.941 9.04028 196.185 9.9875 196.185 11.0875C196.185 11.6986 196.139 12.6 196.048 13.7917H200.86C201.349 13.7917 201.593 14.0056 201.593 14.4333L201.41 16.9083C201.349 17.825 201.089 18.5736 200.631 19.1542C200.203 19.7042 199.302 19.9792 197.927 19.9792H195.498Z" fill="#8571F6"/>
<path d="M0 0H30C38.8366 0 46 7.16344 46 16V46H0V0Z" fill="#4D3ACA"/>
<path d="M14.32 38.96C11.44 38.96 10 37.6 10 34.88V20.48C10 16.64 11.22 13.6 13.66 11.36C16.14 9.12 19.4 8 23.44 8C27.48 8 30.72 9.12 33.16 11.36C35.64 13.6 36.88 16.64 36.88 20.48V34.88C36.88 37.6 35.44 38.96 32.56 38.96C29.68 38.96 28.24 37.6 28.24 34.88V20.96C28.24 19.08 27.82 17.66 26.98 16.7C26.14 15.7 24.96 15.2 23.44 15.2C21.92 15.2 20.74 15.7 19.9 16.7C19.06 17.66 18.64 19.08 18.64 20.96V34.88C18.64 37.6 17.2 38.96 14.32 38.96Z" fill="white"/>
</svg>
